<svg xmlns="http://www.w3.org/2000/svg" viewBox="0 0 34.22 36.97"><defs><style>.a{fill:#010101;}.b{fill:none;stroke:#010101;}</style></defs><title>note-triplet</title><path class="a" d="M20.85,11.24h-1V30.57a4.5,4.5,0,0,0-4.56.57c-2,1.32-2.92,3.47-2,4.81s3.22,1.35,5.23,0a4.68,4.68,0,0,0,2.36-3.76h0Z"/><path class="a" d="M8.44,11.24h-1V30.57a4.5,4.5,0,0,0-4.56.57C.87,32.47,0,34.62.84,36s3.22,1.35,5.23,0a4.68,4.68,0,0,0,2.36-3.76h0Z"/><path class="a" d="M33.72,11.24h-1V30.57a4.5,4.5,0,0,0-4.56.57c-2,1.32-2.92,3.47-2,4.81s3.22,1.35,5.23,0a4.68,4.68,0,0,0,2.36-3.76h0Z"/><path class="a" d="M14.69,5.77c-.59,0-.92.4-.92,1.08S15,8.19,16,8.19a2.83,2.83,0,0,0,2.84-2.44,2.15,2.15,0,0,0-.7-1.44C18.28,4.09,20,3.5,20,1.94a1.86,1.86,0,0,0-2-1.94,2.31,2.31,0,0,0-2.15,1.78.79.79,0,0,0,.81.81A.67.67,0,0,0,17.26,2c0-.27,0-.59-.27-.67-.16-.4.05-.81.65-.81s.89.62.89,1.29c0,1.18-.62,1.94-2.42,1.94,0,.19-.05.3-.11.54.75,0,1.51.27,1.51,1.08,0,1.08-.78,2.4-1.75,2.4a1,1,0,0,1-.78-.4c.24-.3.54-.62.54-.92a.81.81,0,0,0-.86-.67Z"/><path class="b" d="M.52,8.64l0-4.58H11.32"/><path class="b" d="M33.72,8.62V4H22.91"/></svg>