<?xml version="1.0" encoding="UTF-8"?>
<svg xmlns="http://www.w3.org/2000/svg" viewBox="0 0 1310.2947 150.2686">
  <defs>
    <style>
      .cls-1 {
        fill: #eebe22;
      }

      .cls-2 {
        fill: #55185d;
      }
    </style>
  </defs>
  <g id="drop_shadow" data-name="drop shadow">
    <g>
      <path class="cls-1" d="m1310.2947,125.9335c-32.4785.3999-1310.2947-.4004-1310.2947-.4004l108.289-8,1202.0057,8.4004Z"/>
      <path class="cls-1" d="m1161.6762,115.7934c-26.0029.3198-1048.2569-.3199-1048.2569-.3199l86.661-6.4008,961.5959,6.7207Z"/>
      <path class="cls-1" d="m1038.6598,106.2095c-20.7806.2558-838.5796-.2559-838.5796-.2559l69.2806-5.1201,769.299,5.376Z"/>
      <path class="cls-1" d="m960.6159,97.935c-16.6413.2041-670.8967-.2056-670.8967-.2056l55.4657-4.0962,615.431,4.3018Z"/>
      <path class="cls-1" d="m897.6025,90.5541c-13.3115.1641-536.713-.1631-536.713-.1631l44.3227-3.2778,492.3903,3.4409Z"/>
      <path class="cls-1" d="m858.169,84.7846c-10.6286.1318-429.3607-.1299-429.3607-.1299l35.4647-2.6221,393.896,2.752Z"/>
    </g>
  </g>
  <g id="text">
    <g>
      <path class="cls-2" d="m34.5546,150.2686c-14.0874,0-20.6616-3.1934-20.6616-19.9102v-24.7949c0-16.7168,6.5742-19.9102,20.6616-19.9102h46.959v-13.7119c0-5.4473-1.127-6.5742-6.7622-6.5742H15.9589v-18.4082h64.2397c14.0879,0,20.6621,3.1934,20.6621,19.9102v63.4893c0,16.7168-6.5742,19.9102-20.6621,19.9102h-45.644Zm46.959-46.208h-41.6997c-5.6348,0-6.7617,1.1279-6.7617,6.5742v14.8398c0,5.4473,1.127,6.5742,6.7617,6.5742h34.9375c5.6353,0,6.7622-1.127,6.7622-6.5742v-21.4141Z"/>
      <path class="cls-2" d="m142.37,150.2686c-14.0874,0-20.6616-3.1934-20.6616-19.9102V0h19.3467v46.959h46.959c14.0879,0,20.6621,3.1934,20.6621,19.9102v63.4893c0,16.7168-6.5742,19.9102-20.6621,19.9102h-45.644Zm47.147-78.3271c0-5.4473-1.127-6.5742-6.7622-6.5742h-41.6997v60.1074c0,5.4473,1.127,6.5742,6.7622,6.5742h34.9375c5.6353,0,6.7622-1.127,6.7622-6.5742v-53.5332Z"/>
      <path class="cls-2" d="m297.5209,150.2686v-78.3271c0-5.4473-1.127-6.5742-6.7622-6.5742h-34.9375c-5.6353,0-6.7622,1.127-6.7622,6.5742v78.3271h-19.3467v-83.3994c0-16.7168,6.5742-19.9102,20.6616-19.9102h45.644c14.0879,0,20.6621,3.1934,20.6621,19.9102v83.3994h-19.1592Z"/>
      <path class="cls-2" d="m358.3759,150.2686c-14.0874,0-20.6616-3.1934-20.6616-19.9102v-63.4893c0-16.7168,6.5742-19.9102,20.6616-19.9102h45.644c14.0879,0,20.6621,3.1934,20.6621,19.9102v63.4893c0,16.7168-6.5742,19.9102-20.6621,19.9102h-45.644Zm47.147-78.3271c0-5.4473-1.127-6.5742-6.7622-6.5742h-34.9375c-5.6348,0-6.7617,1.127-6.7617,6.5742v53.5332c0,5.4473,1.127,6.5742,6.7617,6.5742h34.9375c5.6353,0,6.7622-1.127,6.7622-6.5742v-53.5332Z"/>
      <path class="cls-2" d="m445.7162,150.2686v-83.3994c0-16.7168,6.5747-19.9102,20.6621-19.9102h42.2632v18.4082h-36.8159c-5.6353,0-6.7622,1.127-6.7622,6.5742v78.3271h-19.3472Z"/>
      <path class="cls-2" d="m646.5101,150.2686v-78.3271c0-5.4473-1.127-6.5742-6.7617-6.5742h-29.3027c-5.6348,0-6.7617,1.127-6.7617,6.5742v78.3271h-19.1597v-78.3271c0-5.4473-1.127-6.5742-6.7617-6.5742h-29.6782c-5.6353,0-6.7622,1.127-6.7622,6.5742v78.3271h-19.3472v-83.3994c0-16.7168,6.5747-19.9102,20.6621-19.9102h35.501c7.1377,0,12.585.9395,15.9658,7.5137,3.3813-6.5742,8.4526-7.5137,15.5908-7.5137h35.313c14.0874,0,20.6616,3.1934,20.6616,19.9102v83.3994h-19.1592Z"/>
      <path class="cls-2" d="m707.3656,150.2686c-14.0879,0-20.6621-3.1934-20.6621-19.9102v-63.4893c0-16.7168,6.5742-19.9102,20.6621-19.9102h45.6436c14.0879,0,20.6621,3.1934,20.6621,19.9102v23.4795c0,16.7178-6.5742,19.9111-20.6621,19.9111h-46.959v15.2148c0,6.3857,1.6904,6.5742,9.9561,6.5742h53.5322v18.2197h-62.1729Zm47.1465-78.3271c0-5.4473-1.127-6.5742-6.7617-6.5742h-34.9375c-5.6357,0-6.7627,1.127-6.7627,6.5742v20.0977h41.7002c5.6348,0,6.7617-1.127,6.7617-6.5742v-13.5234Z"/>
      <path class="cls-2" d="m812.9252,150.2686c-14.0879,0-20.6621-3.1934-20.6621-19.9102V0h19.3477v125.4746c0,5.4473,1.127,6.5742,6.7617,6.5742h14.6514v18.2197h-20.0986Z"/>
      <path class="cls-2" d="m866.0824,150.2686c-14.0879,0-20.6621-3.1934-20.6621-19.9102v-63.4893c0-16.7168,6.5742-19.9102,20.6621-19.9102h45.6436c14.0879,0,20.6621,3.1934,20.6621,19.9102v63.4893c0,16.7168-6.5742,19.9102-20.6621,19.9102h-45.6436Zm47.1465-78.3271c0-5.4473-1.127-6.5742-6.7617-6.5742h-34.9375c-5.6357,0-6.7627,1.127-6.7627,6.5742v53.5332c0,5.4473,1.127,6.5742,6.7627,6.5742h34.9375c5.6348,0,6.7617-1.127,6.7617-6.5742v-53.5332Z"/>
      <path class="cls-2" d="m973.8969,150.2686c-14.0879,0-20.6621-3.1934-20.6621-19.9102v-63.4893c0-16.7168,6.5742-19.9102,20.6621-19.9102h47.1465V0h19.1592v130.3584c0,16.7168-6.5742,19.9102-20.6621,19.9102h-45.6436Zm47.1465-84.9014h-41.6992c-5.6357,0-6.7627,1.127-6.7627,6.5742v53.5332c0,5.4473,1.127,6.5742,6.7627,6.5742h34.9375c5.6348,0,6.7617-1.127,6.7617-6.5742v-60.1074Z"/>
      <path class="cls-2" d="m1071.1928,150.2686v-84.9014h-18.4082v-18.4082h37.5674v103.3096h-19.1592Zm0-117.2095V14.6514h19.1592v18.4077h-19.1592Z"/>
      <path class="cls-2" d="m1132.2377,150.2686c-14.0879,0-20.6621-3.1934-20.6621-19.9102v-63.4893c0-16.7168,6.5742-19.9102,20.6621-19.9102h45.6436c14.0879,0,20.6621,3.1934,20.6621,19.9102v23.4795c0,16.7178-6.5742,19.9111-20.6621,19.9111h-46.959v15.2148c0,6.3857,1.6904,6.5742,9.9561,6.5742h53.5332v18.2197h-62.1738Zm47.1465-78.3271c0-5.4473-1.127-6.5742-6.7617-6.5742h-34.9375c-5.6357,0-6.7627,1.127-6.7627,6.5742v20.0977h41.7002c5.6348,0,6.7617-1.127,6.7617-6.5742v-13.5234Z"/>
      <path class="cls-2" d="m1218.8256,150.2686v-18.2197h51.4678c5.6348,0,6.7617-1.127,6.7617-6.5742v-10.8945c0-5.4473-1.127-6.5742-6.7617-6.5742h-35.126c-14.0879,0-20.6621-3.1934-20.6621-19.9111v-21.2256c0-16.7168,6.5742-19.9102,20.6621-19.9102h56.5391v18.4082h-51.2793c-5.6348,0-6.7617,1.127-6.7617,6.5742v11.2695c0,4.6963.9385,6.5742,5.0713,6.5742h37.0029c14.0879,0,20.6621,3.1934,20.6621,19.9111v20.6621c0,16.7168-6.5742,19.9102-20.6621,19.9102h-56.9141Z"/>
    </g>
  </g>
</svg>