<?xml version="1.0" encoding="UTF-8"?>
<svg xmlns="http://www.w3.org/2000/svg" viewBox="0 0 1254.301 146.3607">
  <defs>
    <style>
      .cls-1 {
        fill: #ebb502;
      }

      .cls-2 {
        fill: #55185d;
      }
    </style>
  </defs>
  <g id="drop_shadow" data-name="drop shadow">
    <g>
      <polygon class="cls-1" points="1022.9504 45.1445 1022.9504 146.3584 1041.0284 146.3583 1050.0284 137.3674 1050.0284 36.1536 1031.9504 36.1536 1022.9504 45.1445"/>
      <path class="cls-1" d="m1050.0284,9.039c0-4.9921-4.0469-9.039-9.0391-9.039-2.4961,0-4.7559,1.0118-6.3916,2.6475h0s-9,8.9908-9,8.9908c-1.6357,1.6357-2.6475,3.8954-2.6475,6.3915,0,4.9921,4.047,9.039,9.0391,9.039,2.4961,0,4.7559-1.0117,6.3916-2.6475l9-8.9908h0c1.6356-1.6358,2.6475-3.8955,2.6475-6.3915Z"/>
    </g>
    <path class="cls-1" d="m421.9636,50.976c-19.7632-19.7632-51.8057-19.7632-71.569,0l-9,8.9908c-19.7632,19.7633-19.7632,51.8058,0,71.569,19.7632,19.7632,51.8057,19.7632,71.569,0l9-8.9908c19.7632-19.7633,19.7632-51.8058,0-71.569Zm-17.7386,62.8515c-12.6399,8.4465-29.8881,7.0937-41.0474-4.0656-11.1683-11.1683-12.5135-28.4351-4.0443-41.0777,12.6399-8.4463,29.8879-7.0934,41.0471,4.0657,11.1683,11.1682,12.5136,28.4349,4.0446,41.0775Z"/>
    <path class="cls-1" d="m282.3607,36.1536c-10.4318,0-19.8761,4.2283-26.7124,11.0646l-11.0645-11.0645-9,8.9908v101.2139h18.0779l9-8.9908v-63.437c0-3.1198.7448-6.059,2.0359-8.6806,2.6172-1.2857,5.5502-2.0275,8.6631-2.0275,10.8795,0,19.699,8.8195,19.699,19.699v63.4369s18.0779,0,18.0779,0l9-8.9908v-63.4369c0-20.8637-16.9133-37.777-37.7769-37.777Z"/>
    <path class="cls-1" d="m466.6865,50.976l-14.8224-14.8224-9,8.9908v101.2139h18.078s9-8.9909,9-8.9909v-50.6069c0-6.6882,2.0209-12.9031,5.4819-18.0725,5.1644-3.4507,11.3697-5.4656,18.047-5.4656l9-8.9908v-18.078c-13.9747,0-26.6264,5.6644-35.7845,14.8224Z"/>
    <path class="cls-1" d="m228.5057,86.7606c0-27.9494-22.6575-50.6069-50.6069-50.6069-12.3884,0-23.7372,4.4514-32.534,11.842l.0027-47.9957-9,8.9999v-.0091l-18.0757,18.0756v68.685c0,27.9495,22.6575,50.6069,50.6069,50.6069,16.2581,0,30.7149-7.6754,39.9736-19.5906,11.9397-9.2573,19.6333-23.7296,19.6333-40.0072Zm-50.6069,32.5289c-17.9652,0-32.5289-14.5637-32.5289-32.5289,0-6.6881,2.0209-12.9031,5.4819-18.0724,5.1644-3.4507,11.3697-5.4656,18.0471-5.4656,17.9652,0,32.5289,14.5637,32.5289,32.5289,0,6.6882-2.0209,12.9031-5.4819,18.0725-5.1644,3.4507-11.3697,5.4656-18.047,5.4656Z"/>
    <path class="cls-1" d="m110.2139,86.7581v-50.6045l-14.8253,14.8198c-19.7634-19.7603-51.8038-19.7595-71.5661.0028l-8.9987,8.9895c-.5909.5909-1.1661,1.1976-1.7274,1.817-.2628.2898-.5098.5884-.7647.8828-.2841.3284-.5728.6525-.8484.9881-.3145.3824-.6122.7736-.9138,1.1628-.1996.258-.4044.5117-.5992.7737-.3214.4318-.6266.8716-.9324,1.3112-.1615.2322-.3274.4609-.485.6959-.3052.4547-.5949.9163-.8837,1.3785-.1472.2356-.2982.4685-.4417.7067-.2736.4545-.533.9147-.791,1.3757-.1472.2628-.2973.5233-.4399.7889-.2336.4357-.4545.876-.6744,1.3169-.153.306-.3079.6105-.4548.92-.1907.4026-.3701.8091-.5496,1.2156-.1595.3605-.3201.7203-.4714,1.0852-.1495.3613-.2888.7255-.4296,1.0895-.1619.4178-.3237.8353-.4748,1.2583-.114.3199-.2188.6421-.3261.9639-.1572.47-.3133.9404-.457,1.4164-.0861.2858-.1633.5734-.2443.8603-.1443.511-.287,1.0225-.4156,1.54-.0663.2673-.1237.5361-.1856.8041-.1233.5336-.2453,1.0675-.3516,1.6074-.0541.2746-.098.5506-.1475.8259-.0953.5303-.1909,1.0604-.2695,1.5964-.0467.3176-.0807.6364-.1213.9546-.0629.4937-.1295.986-.1779,1.484-.0416.4248-.0661.8506-.097,1.2761-.0286.3959-.0658.7893-.0851,1.1877C.0223,94.082,0,94.9157,0,95.7494c0,.0007,0,.0013,0,.002H0c0,.8345.0222,1.6689.0633,2.5026.0193.3973.0564.7896.0849,1.1844.031.4267.0555.8536.0973,1.2796.0484.4968.1149.9879.1775,1.4803.0408.3195.075.6396.1218.9585.0787.5364.1744,1.067.2698,1.5978.0493.2744.093.5494.147.8231.1062.5394.228,1.0727.3512,1.6058.0623.2693.1198.5394.1865.808.1281.5156.2703,1.0253.4141,1.5345.0814.2887.1592.578.2458.8655.1434.4752.2992.9445.4561,1.4137.1075.3223.2125.6451.3267.9657.1508.4221.3121.8386.4737,1.2554.1413.3655.2812.7311.4313,1.0939.1503.3624.3098.7197.4682,1.0778.1807.4094.3613.8185.5533,1.2239.1454.3062.2988.6076.4501.9104.2214.4441.4439.8875.6793,1.3263.1414.2632.2902.5215.436.7819.2589.4628.5193.9246.7939,1.3807.1426.2368.2927.4684.4391.7027.2899.4641.581.9275.8874,1.3841.1551.2312.3184.4562.4772.6846.3083.4434.6161.8868.9402,1.3223.1921.2584.3942.5087.5911.7632.3038.3924.604.7866.921,1.1719.2727.332.5584.6527.8394.9776.2581.2981.5082.6005.7743.8939.5544.6117,1.1227,1.2105,1.706,1.7944.0065.0065.0125.0135.019.02.0076.0076.0156.0144.0231.022.5829.5822,1.1805,1.1494,1.7911,1.7028.2946.2672.5981.5184.8974.7774.3237.2798.6431.5645.9738.8361.3858.3173.7803.6179,1.1732.922.2543.1967.5043.3986.7625.5905.4354.324.8785.6317,1.3218.9399.2286.1589.4538.3223.6851.4775.4573.3069.9214.5984,1.3864.8889.2332.1456.4635.295.6991.4369.4575.2755.9208.5366,1.385.7963.2592.1451.5162.2933.7781.434.4396.2358.8838.4587,1.3287.6805.302.1509.6025.3038.9079.4488.4065.1926.8166.3737,1.2271.5548.357.1579.7131.3168,1.0743.4667.3646.1509.7321.2915,1.0993.4335.4145.1606.8287.3212,1.2484.4711.3237.1153.6496.2214.9751.3299.4664.1559.9329.3107,1.4052.4533.2898.0873.5814.1658.8725.2477.507.1431,1.0143.2847,1.5276.4122.2719.0675.5451.1259.8179.1888.5292.1221,1.0588.2433,1.5942.3487.2794.0551.5603.0997.8405.15.5255.0943,1.0507.1891,1.5817.267.3243.0477.6498.0825.9747.1239.487.0618.9728.1277,1.4641.1755.4352.0427.8714.068,1.3074.0994.3856.0276.7685.064,1.1564.0829,1.669.0822,3.3412.0822,5.0102,0,.3872-.0189.7694-.0552,1.1542-.0828.4368-.0315.8738-.0568,1.3098-.0995.4905-.0478.9753-.1136,1.4616-.1753.3259-.0415.6522-.0764.9773-.1242.5302-.0778,1.0544-.1724,1.5791-.2665.2811-.0505.5629-.0953.8432-.1506.5354-.1054,1.0647-.2264,1.5939-.3486.2725-.0629.5456-.1211.8171-.1885.5141-.1277,1.0222-.2696,1.53-.4129.2902-.0818.5809-.16.8699-.2471.4724-.1426.939-.2975,1.4055-.4534.3259-.1087.6523-.2148.9764-.3303.4185-.1495.8314-.3096,1.2447-.4697.3687-.1425.7375-.2836,1.1033-.435.3602-.1494.7151-.3079,1.0711-.4653.4111-.1814.822-.3628,1.2291-.5557.305-.1448.6051-.2976.9067-.4482.4457-.2223.8907-.4456,1.3311-.6818.2603-.1398.5157-.287.7733-.4312.4658-.2605.9305-.5226,1.3896-.799.2343-.1412.4634-.2897.6953-.4346.466-.291.9312-.5833,1.3896-.8909.2302-.1545.4542-.3171.6818-.4752.4447-.3091.8893-.618,1.326-.943.255-.1896.5018-.389.7531-.5833.3959-.3065.7936-.6094,1.1825-.9292.3247-.2667.6381-.5462.9559-.8208.3055-.2642.6154-.5208.916-.7935.6027-.5463,1.1924-1.1065,1.7681-1.6809.0145-.0145.0297-.0276.0442-.0421h0l14.8224,14.8223,9-8.9908v-50.6043c0-.0016,0-.0035,0-.0051Zm-27.1113,10.3132c-.0114.2812-.0275.5622-.0461.8431-.0135.2061-.0296.4114-.0469.6165-.0264.3091-.0546.6181-.0898.9265-.0166.1466-.0371.2921-.0557.438-.2124,1.6605-.5507,3.3076-1.0192,4.9257-.0206.071-.0396.1426-.0606.2134-.1053.3546-.2192.7068-.3369,1.0583-.0397.1186-.0792.2373-.1202.3553-.113.3251-.2319.6486-.3555.9707-.0548.1425-.1111.2842-.1678.4257-.1214.3035-.246.606-.3769.9064-.069.1582-.1416.3145-.2131.4714-.1291.2838-.2588.5674-.3965.8481-.0851.1733-.1756.3433-.2637.5148-.1351.2634-.2681.5275-.4108.7878-.0992.1808-.2056.3571-.3081.5358-.2736.4773-.5603.9489-.86,1.4148-.1083.1683-.2127.3392-.324.5054-12.6396,8.4449-29.8865,7.0916-41.0452-4.067-11.1669-11.1669-12.5129-28.4306-4.0474-41.0729.2239-.1497.4529-.2922.6808-.4364.3156-.1996.6334-.394.9541-.5817.2715-.1591.5424-.3194.8189-.4708.2339-.1279.4714-.2464.7077-.3682.1989-.1026.3963-.2075.5975-.306.2639-.129.5305-.2501.7971-.3716.1749-.0798.3491-.1608.5257-.2377.2879-.1251.5778-.2438.8685-.3601.1547-.0621.3096-.1238.4655-.1835.3113-.119.6238-.2333.9379-.3425.132-.046.2646-.0902.3974-.1345.3375-.1124.676-.2215,1.0163-.3225.0956-.0284.1923-.0543.2882-.0818,1.5892-.4558,3.206-.7866,4.8359-.9957.1591-.0203.3174-.0427.4772-.0607.2979-.0338.5963-.0606.8949-.0861.2162-.0184.4327-.0353.6501-.0494.271-.0178.5421-.033.8134-.044.2596-.0104.5204-.0154.7816-.0197.2434-.0041.4868-.0103.7302-.0089.3236.0019.6448.0131.9661.0244.3861.0136.7717.0345,1.1572.0617.2671.0188.5347.0356.7999.0609.2816.0269.5624.0621.8434.0963.21.0255.4201.0504.6288.0799.2936.0416.5866.0885.8793.1381.1918.0325.3829.0666.5735.1024.2985.0561.5966.1147.8938.1793.1801.0391.3588.0821.5377.1241.3002.0706.6004.1411.8989.2202.1711.0455.3398.0966.5098.1447.5206.1472,1.0378.3083,1.5519.4819.2216.075.4454.1453.6649.225.1992.0721.3956.153.5936.2291.277.1068.5546.2123.8278.3264.1774.0738.3527.1536.5289.2308.2935.1287.5864.2587.8753.3957.1566.0742.3121.1519.4678.2287.3071.1517.6121.3069.9136.4679.1376.0734.2745.1483.4113.2238.3161.1747.6289.3547.9385.5396.1219.0728.244.1454.3652.2199.321.1975.6375.4016.951.6097.1074.0714.2156.1411.3223.2139.3208.2186.6359.4448.9484.6744.098.0721.1973.1415.2947.2148.313.2354.6193.4792.9233.7256.0934.0757.1887.1479.2814.2249.3059.2535.604.5157.9003.78.0854.0762.1732.1483.258.2256.3629.3305.718.6694,1.0656,1.0159.0128.0128.0262.0245.0389.0373.0125.0125.024.0256.0364.0381.3467.3478.6859.7032,1.0167,1.0663.0776.0852.1501.1733.2267.2592.2642.2963.5264.5944.7798.9002.076.0917.1475.186.2224.2783.2472.3051.4919.6125.7282.9267.0729.0968.1419.1956.2136.293.2299.3129.4565.6284.6753.9496.0728.1068.1425.215.2139.3224.2086.3141.413.631.6108.9527.0739.1201.1457.2411.2178.362.1854.3104.3658.624.541.9409.0757.1371.1507.2744.2242.4124.1605.3005.3152.6046.4664.9107.0775.1571.1558.3138.2305.4719.1362.2873.2655.5785.3935.8704.0779.1781.1584.3553.233.5345.1129.2708.2176.5458.3234.8203.0771.2006.159.3998.2319.6015.0774.2134.1457.431.2188.6465.1786.5286.3444,1.0605.4951,1.5959.0455.1611.0941.3208.1371.4828.0803.3032.1519.6082.2233.9132.0409.1743.0828.3483.1208.5237.0653.3011.1246.6034.1812.9059.0347.1855.0681.3715.0997.5581.0503.2971.0977.5945.1397.8926.0285.2024.0528.4062.0775.6099.035.2875.0707.575.098.8631.0228.241.0378.484.0553.7264.0305.4205.0532.8413.0674,1.2626.0103.3064.0215.6125.0233.921.0014.2539-.0052.5078-.0097.7618-.0043.2493-.009.4985-.0189.7465Z"/>
    <path class="cls-1" d="m602.4984,36.1536h0c-10.0135,0-19.0261,4.2856-25.3034,11.1229-6.2773-6.8371-15.29-11.1229-25.3035-11.1229-9.4834,0-18.069,3.8439-24.2838,10.0587h0s-10.0587-10.0588-10.0587-10.0588l-9,8.9908v101.2139h18.078s9-8.9909,9-8.9909v-66.8713c0-2.1548.4286-4.2072,1.1897-6.0892,1.8782-.7574,3.9254-1.1844,6.0748-1.1844,8.9826,0,16.2645,7.2819,16.2645,16.2645v66.8713h18.078l9-8.9908v-66.8713c0-2.1548.4286-4.2072,1.1897-6.0892,1.8782-.7574,3.9254-1.1844,6.0748-1.1844,8.9826,0,16.2644,7.2819,16.2644,16.2645v66.8713h18.078l9-8.9908v-66.8714c0-18.9668-15.3757-34.3425-34.3425-34.3425Z"/>
    <polygon class="cls-1" points="773.2893 8.9994 773.2887 8.9908 755.2107 27.0688 755.2107 146.3583 773.2887 146.3583 782.2887 137.3674 782.2887 0 773.2893 8.9994"/>
    <path class="cls-1" d="m882.7581,50.976c-19.7632-19.7632-51.8057-19.7632-71.569,0l-9,8.9908c-.0141.0141-.0269.029-.041.0432-.5751.5765-1.1363,1.1671-1.6832,1.7706-.27.2977-.5239.6043-.7855.9068-.2769.3204-.5587.6365-.8276.9639-.3188.3876-.6208.7841-.9264,1.1788-.1954.2527-.396.501-.5867.7575-.3245.436-.6328.88-.9415,1.324-.1584.2279-.3212.4524-.476.683-.3076.4584-.5999.9236-.8909,1.3896-.1448.2319-.2935.461-.4346.6954-.2756.4578-.537.9214-.7969,1.3859-.1452.2593-.2935.5165-.4342.7786-.2354.4388-.4579.8823-.6794,1.3265-.1513.3029-.3047.6041-.4501.9103-.1922.4058-.373.8152-.5538,1.225-.1581.3575-.3174.7141-.4674,1.0759-.1508.3644-.2913.7316-.4332,1.0986-.1607.4147-.3214.8293-.4714,1.2493-.1151.3229-.2209.6483-.3292.973-.1562.4671-.3113.9344-.454,1.4074-.087.2888-.1652.5795-.2469.8696-.1434.5081-.2853,1.0165-.4131,1.5309-.0672.2705-.1252.5424-.1878.8138-.1225.5305-.2438,1.0612-.3495,1.5979-.0548.2781-.0994.5576-.1494.8365-.0945.527-.1896,1.0536-.2677,1.5861-.0473.3217-.0818.6447-.1229.9671-.0622.4896-.1283.9778-.1765,1.4717-.0422.4307-.0671.8624-.0984,1.2938-.0281.3901-.0648.7777-.0839,1.1702-.0821,1.6682-.0821,3.3393,0,5.0074.0192.3929.056.7808.084,1.1713.0312.431.0561.8624.0983,1.2927.0482.4942.1143.9828.1766,1.4728.0411.322.0755.6446.1227.9659.0785.5347.1739,1.0635.2689,1.5927.0496.2761.0937.5527.1479.8281.106.5381.2275,1.0703.3503,1.6021.0625.2706.1204.5418.1873.8115.1279.5147.2699,1.0235.4134,1.5319.0816.2896.1596.5797.2465.8681.1432.4745.2988.9432.4554,1.4117.1077.3229.2129.6463.3273.9675.1506.4216.3118.8378.4732,1.2542.1415.3658.2815.7318.4318,1.095.1502.3622.3096.7192.468,1.0771.1808.4095.3614.8188.5535,1.2244.1454.3062.2988.6075.4501.9103.2215.4441.4439.8875.6792,1.3262.1415.2634.2904.5219.4363.7825.2588.4625.519.9241.7935,1.38.1429.2373.2933.4692.4399.7039.2896.4637.5804.9266.8865,1.3828.1556.2319.3193.4576.4786.6868.3078.4426.6151.8853.9387,1.3201.1931.2596.396.511.5938.7667.303.3912.6022.7842.9182,1.1684.2745.3342.562.657.8448.9839.2563.2959.5045.5963.7687.8875,1.1214,1.2375,2.303,2.4191,3.5405,3.5405.2913.2642.5916.5125.8875.7687.327.2829.6497.5703.9839.8448.3833.3152.7754.6138,1.1656.9161.2569.1988.5095.4027.7702.5966.4331.3223.8741.6283,1.3149.935.231.1606.4584.3256.6922.4824.4551.3054.9171.5955,1.3798.8846.2354.1471.468.2979.706.4412.4553.274.9163.534,1.3782.7924.2615.1465.5209.2959.7852.4379.4373.2345.8791.4562,1.3216.6769.3044.1521.6074.3064.9153.4525.404.1913.8116.3713,1.2195.5513.3596.1591.7183.3192,1.0821.4701.3618.1497.7266.2892,1.0911.4302.4172.1617.8342.3234,1.2567.4742.3207.1143.6436.2192.9661.3268.4694.1569.939.3127,1.4143.4562.2864.0863.5748.1638.8624.2449.5103.1441,1.021.2866,1.5377.415.2679.0665.5374.124.8062.1861.5331.1232,1.0665.2451,1.606.3513.2748.0541.5508.098.8262.1475.5302.0953,1.0601.1908,1.5958.2694.3181.0468.6373.0807.9561.1215.4932.0627.9852.1293,1.4827.1778.4254.0417.8516.0662,1.2777.0972.3953.0285.7883.0657,1.186.085,1.6673.0821,3.3376.0821,5.0049,0,.3978-.0193.7907-.0565,1.186-.085.4261-.0309.8524-.0554,1.2777-.0972.4975-.0485.9894-.1151,1.4827-.1778.3187-.0408.638-.0746.9561-.1215.5358-.0786,1.0656-.1741,1.5958-.2694.2754-.0495.5515-.0934.8262-.1475.5394-.1062,1.0729-.2281,1.606-.3513.2688-.0621.5383-.1196.8062-.1861.5167-.1284,1.0274-.2709,1.5377-.415.2876-.0811.5759-.1586.8624-.2449.4753-.1435.9449-.2993,1.4143-.4562.3225-.1076.6454-.2126.9661-.3268.4225-.1509.8395-.3125,1.2567-.4742.3645-.1409.7292-.2805,1.0911-.4302.3638-.1509.7225-.311,1.0821-.4701.4079-.1801.8155-.36,1.2195-.5513.3079-.1461.6108-.3004.9153-.4525.4425-.2207.8843-.4424,1.3216-.6769.2643-.142.5237-.2914.7852-.4379.4619-.2584.9229-.5184,1.3782-.7924.238-.1433.4706-.2941.706-.4412.4626-.2891.9246-.5792,1.3798-.8846.2338-.1569.4612-.3218.6922-.4824.4409-.3067.8818-.6127,1.3149-.935.2607-.1938.5133-.3978.7702-.5966.3903-.3022.7823-.6008,1.1656-.9161.3342-.2745.657-.562.9839-.8448.2959-.2562.5963-.5045.8875-.7687.6192-.5611,1.2256-1.1361,1.8163-1.7268l8.9987-8.9896c19.7632-19.7633,19.7632-51.8058,0-71.569Zm-12.2888,46.0929c-.0115.283-.0276.5659-.0464.8486-.0134.2039-.0292.407-.0464.6098-.0266.3111-.055.6221-.0905.9324-.0163.1437-.0364.2863-.0546.4294-.2127,1.6653-.5521,3.3173-1.0222,4.9399-.0196.0674-.0376.1353-.0576.2025-.106.3572-.2208.7121-.3394,1.0662-.0388.1157-.0772.2315-.1172.3466-.1138.3277-.2336.6536-.3582.9783-.0536.1395-.1088.2783-.1643.4168-.1224.3062-.2483.6115-.3804.9147-.0675.1545-.1384.3073-.2082.4606-.1306.2872-.262.5743-.4013.8585-.0825.1678-.1702.3326-.2554.4988-.1376.2687-.2735.538-.4191.8036-.0917.1672-.1902.3301-.2849.4955-.2905.5085-.5959,1.0106-.9161,1.5061-.0971.1503-.1902.3033-.2897.4518-12.6397,8.4451-29.8866,7.0919-41.0453-4.0668-11.1668-11.1669-12.5129-28.4304-4.0476-41.0726.2366-.1581.4782-.3091.7191-.4611.2777-.1752.5568-.3467.8386-.5127.2977-.1755.5955-.3508.8992-.517.2266-.1238.4568-.2385.6856-.3566.2063-.1066.4113-.2153.6201-.3176.2593-.1268.5214-.2457.7832-.3651.1797-.0821.3588-.1653.5403-.2443.2842-.1234.5704-.2405.8573-.3555.1588-.0637.3177-.1271.4777-.1884.3079-.1177.617-.2307.9276-.3387.136-.0474.2727-.093.4095-.1385.3339-.1111.6686-.2191,1.0053-.3191.1006-.0299.2023-.0571.3032-.0861,1.5821-.4532,3.1916-.7825,4.814-.9913.1641-.0211.3276-.044.4925-.0626.2944-.0333.5894-.0599.8844-.0851.2202-.0187.4408-.0361.6622-.0504.2676-.0175.5354-.0325.8033-.0434.2641-.0106.5295-.0158.7952-.0201.2392-.0039.4783-.01.7175-.0087.3336.0019.6649.0133.996.0252.368.0132.7355.0333,1.103.059.2774.0193.5552.037.8306.0632.2776.0265.5545.0613.8315.095.2142.0259.4285.0514.6415.0815.2906.0412.5806.0876.8704.1367.1952.033.3896.0677.5837.1042.2957.0555.5909.1137.8851.1776.1839.0399.3663.0837.549.1267.2968.0698.5935.1395.8886.2177.1773.0471.3522.1.5283.15.4795.1358.9562.2834,1.4302.4416.2581.0864.5177.1689.7728.2615.1945.0704.3864.1495.5798.2238.2817.1085.5639.2159.8418.3318.1746.0727.3472.1513.5207.2272.2964.1299.5921.2612.8838.3996.1545.0732.3077.1498.4613.2255.3093.1528.6167.3091.9203.4714.1357.0724.2708.1462.4056.2206.3182.1758.6329.3569.9445.543.1202.0717.2404.1433.3599.2167.323.1987.6415.4039.9569.6135.1056.0702.2119.1388.3169.2103.3228.2199.64.4476.9544.6786.0961.0707.1935.1389.289.2108.3153.2371.6238.4827.9301.7309.0912.074.1843.1446.2749.2197.309.256.6102.5208.9095.7878.0825.0737.1672.1432.2491.2178.3701.337.7325.6825,1.0867,1.0361.0061.0061.0125.0117.0186.0178.0065.0065.0126.0134.0191.02.3531.3537.698.7155,1.0346,1.0851.0759.0833.1466.1694.2215.2532.266.2982.5298.5983.7849.9061.0752.0907.1457.1838.2198.275.2481.3062.4937.6147.7308.9299.0724.0961.1409.1942.212.2909.2304.3135.4574.6296.6767.9515.0724.1064.142.2142.2131.3212.2089.3145.4135.6318.6115.9539.0737.1199.1454.2407.2174.3613.1855.3105.366.6243.5413.9415.0756.137.1505.2742.224.412.1605.3006.3152.6046.4665.9108.0775.1571.1559.314.2307.472.1361.2872.2653.5781.3932.8698.078.1783.1587.3558.2333.5352.1127.2702.2171.5446.3227.8185.0773.2012.1594.401.2326.6034.0757.2086.1424.4214.2139.632.181.5347.3487,1.0726.5011,1.6143.0449.1594.0931.3175.1357.4779.0806.3043.1524.6103.2241.9163.0406.1732.0822.3459.1201.5202.0656.3021.1249.6053.1818.9088.0345.1843.0677.3691.0991.5545.0505.2982.098.5967.1402.8959.0283.2008.0523.4029.0768.6049.0353.2891.0711.5781.0986.8679.0224.2369.037.4761.0543.7144.0312.429.0543.8583.0686,1.288.01.301.0211.6017.0228.9047.0015.2562-.0052.5123-.0098.7684-.0043.2469-.0089.4936-.0187.7391Z"/>
    <path class="cls-1" d="m1224.4779,77.7216h-15.908c-6.4866,0-11.7449-5.2585-11.7449-11.7451,0-.8542.0964-1.6852.2695-2.4876.7987-.1714,1.6255-.2664,2.4753-.2664h45.7311s9-8.991,9-8.991l-18.0781-18.078h-27.653c-8.7355,0-16.593,3.7564-22.0475,9.7413l-.0176-.0084-7.6228,7.5981.0057.0078c-5.6316,5.425-9.1409,13.038-9.1409,21.4751,0,16.4708,13.3523,29.823,29.823,29.823h15.908c6.4866,0,11.7451,5.2584,11.7451,11.745,0,.8542-.0964,1.6851-.2697,2.4876-.7987.1714-1.6256.2665-2.4755.2665h-45.731l-9,8.9908,18.0781,18.0781h27.6528c8.5466,0,16.2478-3.6008,21.6852-9.3612l.0142.0141,8.3535-8.3439-.0006-.0005c5.4175-5.3997,8.7708-12.8691,8.7708-21.1223,0-16.4708-13.3521-29.823-29.823-29.823Z"/>
    <path class="cls-1" d="m1166.7136,102.4695l-15.5927-15.7089-8.9999,8.9909c0,6.6881-4.5857,17.4525-10.5562,20.8446-5.1039,2.0201-6.2954,2.6934-12.9728,2.6934-5.6965,0-11.051-1.4642-15.7075-4.0369l57.312-57.3118c-3.4265-4.9373-7.7095-9.2354-12.6337-12.6795-8.2072-5.7401-18.1957-9.1076-28.9708-9.1076-14.3491,0-27.2932,5.9817-36.5027,15.5757l-.0099-.0101-7.8795,7.8624.006.0054c-.0006.0005-.0011.0011-.0016.0016-2.9263,2.864-5.5068,6.0776-7.6724,9.5775-.0062.0101-.0129.0199-.0192.03-.4188.678-.8212,1.3669-1.2085,2.0657-.015.0272-.0314.0535-.0465.0807-.3735.6772-.7301,1.3647-1.0732,2.0604-.0253.0513-.053.1013-.0781.1526-.3281.6713-.6387,1.3524-.9376,2.0399-.0342.0786-.0719.1551-.1057.2339-.2833.6606-.5481,1.3306-.8036,2.0054-.0415.1093-.0878.2161-.1284.3257-.2389.6442-.4587,1.2974-.6718,1.9537-.047.1445-.1002.2861-.1459.4312-.1968.6255-.3738,1.2596-.5469,1.8954-.049.1801-.1055.357-.1526.5379-.1592.6118-.2976,1.2315-.4342,1.852-.046.2092-.1008.415-.1443.6251-.1226.5931-.2238,1.1937-.3253,1.7941-.0413.2432-.0923.483-.13.7274-.0905.5867-.1587,1.1805-.2289,1.7737-.031.2618-.0725.5204-.0995.7834-.0631.6168-.1031,1.2402-.1439,1.8633-.0159.2438-.043.4844-.0554.7292-.0444.8679-.0671,1.7414-.0673,2.6203,0,.0013-.0001.0026-.0001.004h0c0,27.9495,22.6575,50.607,50.6069,50.607.8186,0,1.6311-.0252,2.4402-.0637.2432-.0116.4844-.0294.7267-.0444.5807-.0359,1.1589-.0806,1.7343-.1359.2559-.0246.5115-.0497.7662-.0781.6251-.0697,1.2465-.1519,1.8646-.2441.1704-.0255.3423-.0461.512-.0733.7957-.1271,1.5851-.2722,2.3679-.4359.1189-.0249.2358-.0546.3544-.0803.6632-.1437,1.3215-.3004,1.9749-.4699.2006-.0521.4-.1069.5997-.1614.6047-.1649,1.2046-.3408,1.8-.5273.1647-.0516.3301-.1011.494-.1544,1.5387-.4995,3.045-1.0697,4.5151-1.7086.0796-.0347.158-.0715.2374-.1065.6619-.2917,1.3158-.5978,1.9625-.9167.1041-.0514.208-.1028.3116-.1548,2.1975-1.1027,4.3032-2.3596,6.3035-3.7585.0221-.0154.0439-.0312.0659-.0467.6671-.4681,1.3223-.9516,1.9653-1.4506.0055-.0043.0111-.0085.0167-.0129,1.9747-1.534,3.8315-3.2108,5.5575-5.0154l.0071.0057,7.085-7.0936-.0012-.0016c6.1119-5.7482,10.7969-12.9965,13.4601-21.1599Zm-80.6505-15.7089c0-6.688,2.021-12.903,5.4818-18.0723.0013-.001.0029-.0018.0043-.0028.5929-.396,1.2026-.7681,1.822-1.1253.0956-.0551.1907-.1107.2867-.1649,1.2527-.7056,2.5575-1.3287,3.906-1.8663.1244-.0495.2485-.0992.3737-.1473.6763-.2599,1.3607-.5033,2.0579-.7184.0098-.003.0198-.0054.0295-.0084.6686-.2056,1.3491-.3832,2.0354-.5461.1589-.0377.3179-.075.4778-.1103.7034-.1558,1.4127-.2958,2.1324-.4052.02-.0031.0404-.0047.0604-.0077.6926-.1039,1.3945-.1786,2.1006-.2381.1831-.0154.3667-.0295.5505-.0419.7295-.049,1.4631-.0828,2.2051-.0829.0016,0,.0032-.0001.0049-.0001,5.6967,0,11.0513,1.4644,15.708,4.0372h.0001s.0001.0003.0001.0003l-35.2032,35.2024c-2.5709-4.6552-4.0341-10.0077-4.0341-15.7019Z"/>
    <path class="cls-1" d="m750.6472,102.4695l-15.5927-15.7089-8.9999,8.9909c0,6.6881-4.5857,17.4525-10.5562,20.8446-5.1039,2.0201-6.2954,2.6934-12.9728,2.6934-5.6965,0-11.051-1.4642-15.7075-4.0369l57.312-57.3118c-3.4265-4.9373-7.7095-9.2354-12.6337-12.6795-8.2072-5.7401-18.1957-9.1076-28.9708-9.1076-14.3491,0-27.2932,5.9817-36.5027,15.5757l-.0099-.0101-7.8795,7.8624.006.0054c-.0006.0005-.0011.0011-.0016.0016-2.9263,2.864-5.5068,6.0776-7.6724,9.5775-.0062.0101-.0129.0199-.0192.03-.4188.678-.8212,1.3669-1.2085,2.0657-.015.0272-.0314.0535-.0465.0807-.3735.6772-.7301,1.3647-1.0732,2.0604-.0253.0513-.053.1013-.0781.1526-.3281.6713-.6387,1.3524-.9376,2.0399-.0342.0786-.0719.1551-.1057.2339-.2833.6606-.5481,1.3306-.8036,2.0054-.0415.1093-.0878.2161-.1284.3257-.2389.6442-.4587,1.2974-.6718,1.9537-.047.1445-.1002.2861-.1459.4312-.1968.6255-.3738,1.2596-.5469,1.8954-.049.1801-.1055.357-.1526.5379-.1592.6118-.2976,1.2315-.4342,1.852-.046.2092-.1008.415-.1443.6251-.1226.5931-.2238,1.1937-.3253,1.7941-.0413.2432-.0923.483-.13.7274-.0905.5867-.1587,1.1805-.2289,1.7737-.031.2618-.0725.5204-.0995.7834-.0631.6168-.1031,1.2402-.1439,1.8633-.0159.2438-.043.4844-.0554.7292-.0444.8679-.0671,1.7414-.0673,2.6203,0,.0013-.0001.0026-.0001.004h0c0,27.9495,22.6575,50.607,50.607,50.607.8186,0,1.6311-.0252,2.4402-.0637.2432-.0116.4844-.0294.7267-.0444.5807-.0359,1.1589-.0806,1.7343-.1359.2559-.0246.5115-.0497.7662-.0781.6251-.0697,1.2465-.1519,1.8646-.2441.1704-.0255.3423-.0461.512-.0733.7957-.1271,1.5851-.2722,2.3679-.4359.1189-.0249.2358-.0546.3544-.0803.6632-.1437,1.3215-.3004,1.9749-.4699.2006-.0521.4-.1069.5997-.1614.6047-.1649,1.2046-.3408,1.8-.5273.1647-.0516.3301-.1011.494-.1544,1.5387-.4995,3.045-1.0697,4.5151-1.7086.0796-.0347.158-.0715.2374-.1065.6619-.2917,1.3158-.5978,1.9625-.9167.1041-.0514.208-.1028.3116-.1548,2.1975-1.1027,4.3032-2.3596,6.3035-3.7585.0221-.0154.0439-.0312.0659-.0467.6671-.4681,1.3223-.9516,1.9653-1.4506.0055-.0043.0111-.0085.0167-.0129,1.9747-1.534,3.8315-3.2108,5.5575-5.0154l.0071.0057,7.085-7.0936-.0012-.0016c6.1119-5.7482,10.7969-12.9965,13.4601-21.1599Zm-80.6505-15.7089c0-6.688,2.021-12.903,5.4818-18.0723.0013-.001.0029-.0018.0043-.0028.5929-.396,1.2026-.7681,1.822-1.1253.0956-.0551.1907-.1107.2867-.1649,1.2527-.7056,2.5575-1.3287,3.906-1.8663.1244-.0495.2485-.0992.3737-.1473.6763-.2599,1.3607-.5033,2.0579-.7184.0098-.003.0198-.0054.0295-.0084.6686-.2056,1.3491-.3832,2.0354-.5461.1589-.0377.3179-.075.4778-.1103.7034-.1558,1.4127-.2958,2.1324-.4052.02-.0031.0404-.0047.0604-.0077.6926-.1039,1.3945-.1786,2.1006-.2381.1831-.0154.3667-.0295.5505-.0419.7295-.049,1.4631-.0828,2.2051-.0829.0016,0,.0032-.0001.0049-.0001,5.6967,0,11.0513,1.4644,15.708,4.0372h.0001s.0001.0003.0001.0003l-35.2032,35.2024c-2.5709-4.6552-4.0341-10.0077-4.0341-15.7019Z"/>
    <path class="cls-1" d="m1012.3724,0l-9,9v-.0092l-18.0781,18.078.0027,14.8784c-.7072-.3721-1.426-.7242-2.1526-1.0634-.1117-.0521-.2249-.0995-.3369-.1508-.6167-.2824-1.2393-.554-1.869-.812-.1329-.0544-.267-.1055-.4003-.1586-.6194-.2476-1.2441-.4839-1.8752-.7075-.121-.0428-.2423-.0842-.3635-.126-.6523-.2255-1.3102-.4377-1.9741-.6369-.0964-.0289-.1926-.0579-.2893-.0862-.6959-.2042-1.3979-.3935-2.106-.5683-.064-.0158-.1279-.0325-.1919-.0481-.7445-.1807-1.495-.3452-2.252-.4926-.0278-.0054-.0553-.0116-.0831-.017-3.121-.602-6.3409-.9263-9.6376-.9263-1.5316,0-3.044.0799-4.541.2131-.1147.0103-.2298.0151-.3445.0262-.691.0662-1.3756.1531-2.0582.2468-.1267.0175-.2538.03-.3805.0483-.6812.0988-1.3557.2168-2.0278.3424-.1312.0245-.263.0447-.394.0703-.6559.128-1.3049.2737-1.9514.4268-.1547.0366-.3101.0692-.4646.1072-.6144.1516-1.222.3193-1.8273.4931-.1923.0551-.3854.1064-.5771.1639-.5614.1685-1.1161.3513-1.6692.5385-.2385.0806-.4777.1578-.7151.242-.4982.1771-.9899.3666-1.4808.5587-.2924.1141-.5853.2256-.8759.3453-.4304.1778-.8547.3664-1.2789.5556-.3442.1531-.6887.3046-1.0302.4658-.3677.174-.7296.3575-1.0923.54-.3857.1937-.7716.3865-1.1533.5907-.3176.1702-.6293.3491-.9428.5258-.4117.2318-.8234.463-1.2299.7072-.2855.1717-.5648.3521-.8467.5292-.4178.2624-.8357.5239-1.2473.7997-.2771.1855-.5469.3806-.82.5715-.4003.2798-.8016.5574-1.1956.8502-.301.2236-.5928.4582-.8885.6882-.352.274-.7067.5428-1.053.8275-.3777.3101-.7432.6339-1.1116.9545-.2548.2219-.5142.4352-.7654.6631-.6236.5649-1.2341,1.1438-1.8289,1.7388l-8.9831,8.974c-.6298.6294-1.2396,1.2786-1.8356,1.9403-.233.2621-.4583.5286-.6872.7933-.0014.0016-.0027.0032-.0041.0048-.2743.3176-.5535.6306-.8199.955-.0012.0014-.0024.0027-.0035.0041-.3188.3876-.6208.7841-.9264,1.1788-.0075.0097-.015.0195-.0226.0292-.185.2396-.3752.4748-.556.7178-.0027.0035-.0056.007-.0082.0106-.3245.436-.6328.88-.9415,1.324-.011.0159-.0221.0317-.0331.0475-.1434.2068-.2912.4102-.4315.6192-.0037.0055-.0076.0107-.0113.0162-.3076.4584-.5999.9236-.8909,1.3896-.0119.019-.0237.0381-.0356.0571-.1277.2051-.2592.4074-.384.6145-.0049.0081-.0101.0158-.015.0239-.2756.4578-.537.9214-.7969,1.3859-.0126.0224-.025.0449-.0375.0673-.1265.2266-.2561.4512-.3792.6799-.0057.0106-.0118.0208-.0175.0314-.2354.4388-.4579.8823-.6794,1.3265-.0133.0266-.0262.0534-.0395.08-.1309.2632-.2643.5245-.3907.7902-.0065.0135-.0135.0267-.0199.0402-.1922.4058-.373.8152-.5538,1.225-.0142.0322-.0278.0647-.0421.0969-.136.3094-.274.6175-.4041.9301-.0068.0164-.0144.0325-.0212.0489-.1508.3644-.2913.7316-.4332,1.0986-.0148.0383-.0287.0771-.0435.1154-.1378.3584-.277.7159-.4069,1.0782-.0067.0187-.0143.0369-.021.0557-.1151.3229-.2209.6483-.3292.973-.0153.0457-.0292.092-.0444.1378-.1328.4013-.2665.8018-.3895,1.2075-.0063.0209-.0138.0413-.0201.0621-.087.2888-.1652.5795-.2469.8696-.0157.0555-.0295.1118-.0452.1673-.12.4311-.2411.8614-.35,1.297-.0056.0224-.0125.0443-.018.0667-.0672.2705-.1252.5424-.1878.8138-.0164.0707-.0304.1423-.0466.2131-.099.4373-.2001.8737-.2877,1.3152-.0046.0233-.0106.0461-.0152.0695-.0548.2781-.0994.5576-.1494.8365-.0173.0964-.0318.1938-.049.2902-.0706.4074-.1458.8132-.2065,1.2239-.0036.0241-.0086.0477-.0121.0719-.0473.3217-.0818.6447-.1229.9671-.0178.1404-.0327.2817-.0506.4221-.0386.3256-.0847.6489-.1171.9763-.0025.0245-.0064.0486-.0088.0732-.0422.4307-.0671.8624-.0984,1.2938-.0178.2477-.0352.4955-.0533.7431-.0067.118-.0193.2343-.0253.3525-.0013.025-.0042.0496-.0054.0745-.0821,1.6682-.0821,3.3393,0,5.0074.0013.0265.0042.0525.0057.0789.0035.0689.011.1367.0147.2055.0198.296.0424.5912.0636.8868.0312.431.0561.8624.0983,1.2927.0029.0292.0074.0579.0104.0872.0273.2751.0667.5465.0984.8203.0238.1881.0438.3773.0677.5653.0411.322.0755.6446.1227.9659.0048.0327.0115.0646.0164.0972.0527.3542.1183.704.1783,1.0559.0259.1461.048.2935.0742.4396.0496.2761.0937.5527.1479.8281.007.0356.016.0704.0231.1059.0754.3784.1628.7522.2466,1.1275.028.1225.0524.2463.0806.3687.0625.2706.1204.5418.1873.8115.0096.0385.0212.0761.0309.1146.0914.3644.1936.7242.2929,1.0854.0308.1102.0585.2217.0895.3318.0816.2896.1596.5797.2465.8681.0125.0411.0269.0814.0395.1224.0997.3272.2084.6503.3145.9746.0347.1045.0666.2102.1015.3146.1077.3229.2129.6463.3273.9675.0153.0427.0325.0844.0479.127.0994.2759.2061.5481.3101.8218.0391.1014.0759.204.1152.3054.1415.3658.2815.7318.4318,1.095.0179.0433.0377.0856.0559.1287.0904.2162.1864.4292.2797.6439.0447.1012.0876.2034.1323.3046.1808.4095.3614.8188.5535,1.2244.0204.0429.0424.0849.0631.1276.075.1568.1542.3109.2308.4668.0526.105.1037.2108.1562.3159.2215.4441.4439.8875.6792,1.3262.0223.0415.0461.082.0688.1234.0579.1069.1189.2118.1775.3183.0638.1133.1265.2273.1901.3408.2588.4625.519.9241.7935,1.38.0239.0396.0492.0782.0734.1175.0421.0694.0865.1371.1289.2062.0796.1264.1584.2534.2375.3802.2896.4637.5804.9266.8865,1.3828.0251.0374.0518.0737.0772.1108.0267.0397.0552.0781.082.1177.1065.1527.2131.3054.3194.4583.3078.4426.6151.8853.9387,1.3201.0258.0347.0532.068.0793.1024.016.0213.033.0418.049.0632.1542.2012.3105.4006.4656.6011.303.3912.6022.7842.9182,1.1684.2745.3342.562.657.8448.9839.2563.2959.5045.5963.7687.8875,1.1214,1.2375,2.303,2.4191,3.5405,3.5405.2913.2642.5916.5125.8875.7687.327.2829.6497.5703.9839.8448.3833.3152.7754.6138,1.1656.9161.2033.1573.4055.3159.6096.4721.0189.0141.037.0292.0558.0433.0352.0267.0693.0548.1048.0812.4331.3223.8741.6283,1.3149.935.1559.1084.3115.217.4672.3256.0375.0254.0737.0522.1112.0775.0381.0262.0754.0535.1138.0793.4551.3054.9171.5955,1.3798.8846.1312.082.2626.1636.3934.2459.0638.0391.1262.08.1902.1188.041.0252.0811.0516.1223.0765.4553.274.9163.534,1.3782.7924.1174.0657.2353.1306.3525.1965.1017.0559.2017.1143.3038.1694.0432.0237.0856.0486.129.0719.4373.2345.8791.4562,1.3216.6769.1103.0551.2214.1088.3316.1639.1499.0735.298.1498.4487.2219.0452.0219.0895.0452.1349.0667.404.1913.8116.3713,1.2195.5513.1072.0474.2153.0928.3225.1401.2075.0901.4134.183.6224.2704.046.0194.0911.0405.1372.0596.3618.1497.7266.2892,1.0911.4302.1075.0417.2162.0807.3238.1222.2654.1008.5293.2043.7968.3007.0457.0166.0903.035.1361.0514.3207.1143.6436.2192.9661.3268.1111.0372.2236.0711.3348.108.3156.1031.6298.2088.9481.3058.0441.0135.0873.0291.1315.0424.2864.0863.5748.1638.8624.2449.1193.0337.24.0637.3593.097.3505.0962.6995.1954,1.053.2842.0421.0107.0833.0234.1254.0338.2679.0665.5374.124.8062.1861.1346.0311.2708.058.4055.0887.3605.0801.7192.1643,1.0825.2368.0396.008.0784.018.118.0258.2748.0541.5508.098.8262.1475.1611.0289.3237.0533.4849.0818.334.0566.6659.1191,1.0021.1692.0365.0055.0723.013.1089.0184.3181.0468.6373.0807.9561.1215.21.0267.4213.0493.6313.0757.2512.0288.5001.0651.7523.0902.0332.0034.0658.0087.099.0119.4254.0417.8516.0662,1.2777.0972.3326.024.6644.051.9979.0715.0329.0017.0653.0054.0983.007.0301.0016.0597.005.0898.0065,1.6673.0821,3.3376.0821,5.0049,0,.0288-.0014.0572-.0046.086-.0062.0757-.0038.1501-.012.2256-.0162.2917-.0198.5829-.0417.8744-.0627.4261-.0309.8524-.0554,1.2777-.0972.0291-.0028.0577-.0074.0867-.0104.2986-.0296.5932-.0721.8903-.1068.1682-.0214.3374-.0392.5056-.0606.3187-.0408.638-.0746.9561-.1215.0293-.0043.058-.0104.0873-.0148.387-.0574.7692-.1285,1.1534-.1947.118-.0211.2371-.0388.3551-.0599.2754-.0495.5515-.0934.8262-.1475.0291-.0057.0575-.0131.0865-.0189.4193-.0833.8335-.1796,1.249-.2732.0898-.0206.1807-.0384.2704-.0591.2688-.0621.5383-.1196.8062-.1861.0281-.007.0555-.0154.0836-.0225.4155-.1039.826-.2198,1.2374-.334.072-.0202.1448-.0381.2167-.0585.2876-.0811.5759-.1586.8624-.2449.0267-.0081.0527-.0175.0794-.0256.387-.1174.7692-.2452,1.1522-.3716.0607-.0202.1221-.0387.1827-.059.3225-.1076.6454-.2126.9661-.3268.0251-.009.0497-.0192.0748-.0282.3438-.1233.6828-.2556,1.0231-.3861.0527-.0204.1061-.0395.1589-.0599.3645-.1409.7292-.2805,1.0911-.4302.0228-.0095.0449-.0198.0676-.0294.2937-.1223.5831-.2521.874-.3797.0466-.0207.0938-.0404.1405-.061.4079-.1801.8156-.36,1.2195-.5513.0194-.0093.0385-.0193.058-.0287.2463-.1172.4885-.2411.7325-.3622.0414-.0208.0833-.0409.1248-.0616.4425-.2207.8844-.4424,1.3217-.6769.0165-.0089.0325-.0185.0491-.0274.2079-.1119.4119-.2298.6179-.3445.0393-.0222.0789-.0439.1182-.0659.4619-.2584.9229-.5184,1.3782-.7924.0139-.0084.0276-.0175.0415-.0259.1857-.112.3669-.23.551-.3444.0377-.0238.0757-.0473.1135-.0709.4626-.2891.9246-.5792,1.3796-.8846.0107-.0071.0209-.0148.0315-.0219.1865-.1254.3679-.2575.5527-.3853.0359-.0252.072-.0502.108-.0753.4408-.3067.8818-.6127,1.3149-.935.0087-.0064.0167-.0132.0254-.0197.212-.1578.4171-.3242.6266-.4853.0393-.0307.0789-.0611.1182-.0916.3904-.3022.7825-.6008,1.1658-.9161.0061-.005.0118-.0104.0179-.0154.2814-.2313.5524-.4743.8286-.7115.0455-.0396.0917-.0784.1373-.1179.2959-.2562.5962-.5045.8875-.7687.0044-.004.0085-.0082.0128-.0121.5387-.4884,1.0634-.9917,1.5804-1.5026.073-.0721.1505-.1395.2231-.2121l.0024-.0025,14.8223,14.8221,9-8.9908V0Zm-83.0999,85.3336c.0086-.1953.0199-.3905.032-.5856.0186-.3043.0422-.6069.0692-.9089.0204-.2277.0408-.4553.0661-.6826.0283-.256.063-.5101.0971-.7643.0348-.2573.0668-.5149.1077-.7715.0266-.1677.06-.3331.0892-.5.1185-.6754.2562-1.348.4176-2.0164.0203-.084.0374-.169.0583-.2527.0811-.3246.1724-.6472.2637-.9697.0435-.1538.0852-.3083.131-.4612.09-.3008.187-.5999.2859-.8984.0576-.174.1155-.3477.176-.5203.0988-.2822.2018-.5631.3086-.8431.072-.1885.1465-.3759.2219-.5627.1061-.2632.2137-.5259.327-.7868.0894-.2056.1832-.4088.2767-.6122.1106-.2409.2201-.4821.3369-.7208.1117-.2281.23-.4522.3469-.6773.11-.2121.2164-.4257.3314-.6359.1575-.2876.3239-.5694.4897-.8516.1702-.2898.3455-.5773.5255-.8628.16-.2539.3189-.5084.4857-.7576.2354-.1572.4758-.3076.7155-.4587.2777-.1752.5568-.3467.8386-.5127.2977-.1755.5955-.3508.8992-.517.2266-.1238.4568-.2385.6856-.3566.2063-.1066.4113-.2153.6201-.3176.2593-.1268.5214-.2457.7832-.3651.1797-.0821.3588-.1653.5403-.2443.2842-.1234.5704-.2405.8573-.3555.1588-.0637.3177-.1271.4777-.1884.3079-.1177.617-.2307.9276-.3387.136-.0474.2727-.093.4095-.1385.3339-.1111.6686-.2191,1.0053-.3191.1006-.0299.2023-.0571.3032-.0861,1.5821-.4532,3.1916-.7825,4.814-.9913.1641-.0211.3276-.044.4925-.0626.2944-.0333.5894-.0599.8844-.0851.2202-.0187.4408-.0361.6622-.0504.2676-.0175.5354-.0325.8033-.0434.2641-.0106.5295-.0158.7952-.0201.2392-.0039.4783-.01.7175-.0087.3336.0019.6649.0133.996.0252.368.0132.7355.0333,1.103.059.2774.0193.5552.037.8306.0632.2776.0265.5545.0613.8315.095.2142.0259.4285.0514.6415.0815.2906.0412.5806.0876.8704.1367.1952.033.3896.0677.5837.1042.2957.0555.5909.1137.8851.1776.1839.0399.3663.0837.549.1267.2968.0698.5935.1395.8886.2177.1773.0471.3522.1.5283.15.4795.1358.9562.2834,1.4302.4416.2581.0864.5177.1689.7728.2615.1945.0704.3864.1495.5798.2238.2817.1085.5639.2159.8418.3318.1746.0727.3472.1513.5207.2272.2964.1299.5921.2612.8838.3996.1545.0732.3077.1498.4613.2255.3093.1528.6167.3091.9203.4714.1357.0724.2708.1462.4056.2206.3182.1758.6329.3569.9445.543.1202.0717.2404.1433.3599.2167.323.1987.6415.4039.9569.6135.1056.0702.2119.1388.3169.2103.3228.2199.64.4476.9544.6786.0961.0707.1935.1389.289.2108.3153.2371.6238.4827.9301.7309.0912.074.1843.1446.2749.2197.3091.256.6102.5208.9094.7878.0825.0737.1672.1432.2491.2178.3701.337.7325.6825,1.0868,1.0361.0061.0061.0125.0117.0186.0178.0065.0065.0125.0134.019.02.353.3537.698.7155,1.0347,1.0851.0758.0833.1465.1694.2214.2532.266.2982.5298.5983.7849.9061.0752.0907.1458.1838.2197.275.2482.3062.4937.6147.7308.9299.0724.0961.141.1942.212.2909.2305.3135.4574.6296.6768.9515.0724.1064.1418.2142.213.3212.2089.3145.4135.6318.6115.9539.0737.1199.1455.2407.2175.3613.1854.3105.366.6243.5413.9415.0757.137.1505.2742.224.412.1605.3006.3153.6046.4664.9108.0775.1571.156.314.2307.472.1361.2872.2653.5781.3932.8698.078.1783.1587.3558.2333.5352.1128.2702.2172.5446.3228.8185.0774.2012.1594.401.2327.6034.0757.2086.1423.4214.2139.632.1809.5347.3486,1.0726.501,1.6143.0449.1594.0933.3175.1357.4779.0807.3043.1525.6103.2241.9163.0405.1732.0823.3459.1201.5202.0654.3021.1249.6053.1816.9088.0347.1843.0677.3691.0991.5545.0505.2982.098.5967.1401.8959.0283.2008.0524.4029.0769.6049.0353.2891.071.5781.0986.8679.0225.2369.037.4761.0543.7144.0312.429.0543.8583.0686,1.288.01.301.0211.6017.0228.9047.0015.2562-.0051.5123-.0098.7684-.0044.2469-.0089.4936-.0187.7391-.0115.283-.0277.5659-.0465.8486-.0134.2039-.0292.407-.0464.6098-.0265.3111-.0549.6221-.0903.9324-.0164.1437-.0364.2863-.0547.4294-.2126,1.6653-.552,3.3173-1.0222,4.9399-.0195.0674-.0376.1353-.0575.2025-.1061.3572-.2208.7121-.3394,1.0662-.0388.1157-.0773.2315-.1173.3466-.1138.3277-.2335.6536-.3582.9783-.0537.1395-.1088.2783-.1643.4168-.1224.3062-.2483.6115-.3804.9147-.0675.1545-.1384.3073-.2083.4606-.1305.2872-.262.5743-.4012.8585-.0824.1678-.1702.3326-.2555.4988-.1376.2687-.2734.538-.4189.8036-.0918.1672-.1903.3301-.2849.4955-.2905.5085-.5959,1.0106-.9161,1.5061-.0953.1476-.1871.298-.2847.444-.3591.2399-.7225.4739-1.0914.6997-.0311.019-.0613.0399-.0924.0588-.4288.2604-.8647.5101-1.3063.751-.1313.0715-.2649.1369-.397.2065-.3047.1608-.6104.3203-.9207.4716-.1914.0933-.3851.1802-.5781.2695-.2524.1171-.5054.2335-.7612.3442-.2233.0964-.448.1878-.6729.279-.2288.0929-.4584.1841-.6897.2719-.2442.0925-.4893.1819-.7353.2684-.2145.0755-.4305.1478-.647.2189-.2607.0855-.5215.17-.7839.2487-.2054.0617-.413.1183-.6201.1761-.2728.076-.5452.1534-.8195.2222-.2048.0513-.4125.0953-.6188.1428-.4509.1036-.9034.1976-1.3575.2819-.2842.0526-.5677.1075-.8545.1526-.2118.0335-.4245.0591-.6367.0884-.3009.0413-.6021.082-.9056.1151-.1948.0214-.3899.0385-.585.0563-.3372.0305-.6755.0571-1.0156.0773-.1663.01-.3326.0195-.499.027-.4066.0179-.8152.0281-1.2255.0309-.1046.0008-.2092.004-.3138.0038-1.0624-.0026-2.1128-.0565-3.149-.1587-.1258-.0125-.2512-.0291-.3768-.043-.3797-.0419-.7578-.0891-1.1334-.144-.17-.0248-.3395-.0524-.5091-.08-.3375-.0548-.6733-.1148-1.0073-.1799-.1718-.0334-.3434-.067-.5146-.1032-.3526-.0747-.7025-.1565-1.0508-.2426-.1394-.0344-.2794-.0663-.4184-.1025-.4794-.1252-.9556-.2587-1.4261-.4049-.0021-.0007-.0043-.0012-.0065-.0019-1.0149-.3157-2.0084-.6799-2.978-1.0897-.0121-.0051-.0239-.0106-.036-.0157-.4697-.1992-.9336-.4089-1.3916-.6292-.0198-.0095-.0396-.0195-.0594-.0291-.4572-.221-.9087-.4518-1.3536-.6933l-.0256-.0139c-5.5176-3.0007-10.0699-7.5519-13.0722-13.0685-.0078-.0143-.0156-.0287-.0234-.0432-.2371-.4372-.4637-.8808-.6811-1.3298-.0137-.0283-.0278-.0563-.0414-.0847-.2137-.4449-.4171-.8956-.611-1.3514-.011-.026-.023-.0518-.0339-.0778-.4067-.9636-.7687-1.9508-1.0826-2.9592-.0071-.0229-.0129-.0461-.02-.069-.1387-.449-.2667-.9027-.3862-1.3598-.041-.1572-.0771-.3153-.1157-.473-.0806-.3284-.158-.6581-.2286-.9904-.0399-.188-.0765-.3765-.1131-.5651-.0608-.3137-.1172-.6288-.1689-.9457-.0308-.1884-.0612-.3768-.0886-.5657-.0502-.3458-.0933-.6937-.1325-1.043-.0175-.1552-.0377-.3102-.0529-.4656-.0999-1.0214-.153-2.0563-.1561-3.1031-.0004-.1346.0038-.2692.0051-.4039.0035-.376.0123-.7509.0284-1.1238Z"/>
  </g>
  <g id="text">
    <path class="cls-2" d="m59.607,36.1536c-27.9495,0-50.6069,22.6575-50.6069,50.6069s22.6575,50.6069,50.6069,50.6069c13.9747,0,26.6264-5.6644,35.7845-14.8224l14.8224,14.8224V36.1536s-14.8224,14.8225-14.8224,14.8225c-9.1581-9.1581-21.8098-14.8225-35.7845-14.8225Zm0,83.1359c-17.9652,0-32.5289-14.5637-32.5289-32.5289s14.5637-32.5289,32.5289-32.5289,32.5289,14.5637,32.5289,32.5289-14.5637,32.5289-32.5289,32.5289Z"/>
    <path class="cls-2" d="m177.8988,36.1537c-12.3885,0-23.7372,4.4514-32.534,11.8421L145.3675,0l-18.0756,18.0756v68.685c0,27.9495,22.6575,50.6069,50.6069,50.6069s50.6069-22.6575,50.6069-50.6069-22.6575-50.6069-50.6069-50.6069Zm0,83.1359c-17.9652,0-32.5289-14.5637-32.5289-32.5289s14.5637-32.5289,32.5289-32.5289,32.5289,14.5637,32.5289,32.5289-14.5637,32.5289-32.5289,32.5289Z"/>
    <path class="cls-2" d="m421.9636,50.976c-19.7633-19.7633-51.8058-19.7632-71.569,0-19.7633,19.7633-19.7632,51.8058,0,71.569,19.7633,19.7633,51.8058,19.7632,71.569,0,19.7632-19.7632,19.7632-51.8058,0-71.569Zm-58.7859,58.7859c-12.7033-12.7033-12.7033-33.2995,0-46.0029s33.2995-12.7033,46.0028,0c12.7033,12.7033,12.7034,33.2995,0,46.0028-12.7033,12.7033-33.2995,12.7033-46.0029,0Z"/>
    <path class="cls-2" d="m502.471,36.1536c-13.9747,0-26.6264,5.6644-35.7845,14.8224l-14.8224-14.8224v101.2139h18.078v-50.607c0-17.9652,14.5637-32.5289,32.5289-32.5289v-18.078Z"/>
    <path class="cls-2" d="m602.4983,36.1536c18.9668,0,34.3425,15.3756,34.3425,34.3425v66.8714s-18.078,0-18.078,0v-66.8713c0-8.9826-7.2818-16.2644-16.2644-16.2644s-16.2645,7.2818-16.2645,16.2644v66.8713h-18.078v-66.8713c0-8.9826-7.2818-16.2644-16.2644-16.2644s-16.2645,7.2818-16.2645,16.2644v66.8713s-18.0781,0-18.0781,0V36.1536l10.0588,10.0587h-.0001c6.2148-6.2147,14.8004-10.0586,24.2838-10.0586,10.0136,0,19.0262,4.2857,25.3036,11.123l-.0025.0023c6.2775-6.8386,15.2911-11.1254,25.3058-11.1254h0Z"/>
    <path class="cls-2" d="m735.0547,86.7605c0,17.9652-14.5637,32.5289-32.5289,32.5289-5.6965,0-11.0509-1.4642-15.7075-4.0369l57.3121-57.3118c-3.4266-4.9373-7.7094-9.2354-12.6337-12.6795-8.2071-5.7401-18.1957-9.1076-28.9709-9.1076-27.9495,0-50.6069,22.6575-50.6069,50.6069s22.6575,50.6069,50.6069,50.6069c22.4657,0,41.5123-14.6388,48.1215-34.898l-15.5925-15.7089Zm-65.0579,0c0-17.9652,14.5637-32.5289,32.5289-32.5289,5.6967,0,11.0513,1.4644,15.708,4.0372l.0004.0004-44.2003,44.1992c-2.5728-4.6567-4.037-10.0112-4.037-15.7078Z"/>
    <polygon class="cls-2" points="764.2107 18.078 764.2107 137.3675 782.2887 137.3674 782.2887 0 764.2107 18.078"/>
    <path class="cls-2" d="m846.9736,36.1536c-27.9495,0-50.6069,22.6575-50.6069,50.6069s22.6575,50.6069,50.6069,50.6069,50.6069-22.6575,50.6069-50.6069-22.6575-50.6069-50.6069-50.6069Zm0,83.1359c-17.9652,0-32.5289-14.5637-32.5289-32.5289s14.5637-32.5289,32.5289-32.5289,32.5289,14.5637,32.5289,32.5289-14.5637,32.5289-32.5289,32.5289Z"/>
    <g>
      <rect class="cls-2" x="1031.9504" y="36.1536" width="18.078" height="101.2138"/>
      <circle class="cls-2" cx="1040.9894" cy="9.039" r="9.039"/>
    </g>
    <path class="cls-2" d="m1151.1211,86.7606c0,17.9652-14.5637,32.5289-32.5289,32.5289-5.6965,0-11.0509-1.4642-15.7075-4.0369l57.3121-57.3118c-3.4266-4.9373-7.7094-9.2354-12.6337-12.6795-8.2071-5.7401-18.1957-9.1076-28.9709-9.1076-27.9495,0-50.6069,22.6575-50.6069,50.6069s22.6575,50.6069,50.6069,50.6069c22.4657,0,41.5123-14.6388,48.1215-34.898l-15.5925-15.7089Zm-65.0579,0c0-17.9652,14.5637-32.5289,32.5289-32.5289,5.6967,0,11.0513,1.4644,15.708,4.0372l.0004.0004-44.2003,44.1992c-2.5728-4.6567-4.037-10.0112-4.037-15.7078Z"/>
    <path class="cls-2" d="m1224.478,95.7997c6.4866,0,11.745,5.2584,11.745,11.7449s-5.2584,11.745-11.745,11.745h-45.731l18.0781,18.078h27.6529c16.4708,0,29.823-13.3522,29.823-29.823s-13.3522-29.823-29.823-29.823h-15.908c-6.4866,0-11.7449-5.2584-11.7449-11.745s5.2584-11.7449,11.7449-11.7449h45.731s-18.0781-18.0781-18.0781-18.0781h-27.6529c-16.4708,0-29.823,13.3522-29.823,29.823s13.3522,29.823,29.823,29.823h15.908Z"/>
    <path class="cls-2" d="m262.6617,73.9306c0-10.8795,8.8195-19.699,19.699-19.699s19.699,8.8195,19.699,19.699v63.4369s18.0779,0,18.0779,0v-63.4369c0-20.8637-16.9133-37.777-37.7769-37.777-10.4318,0-19.8761,4.2283-26.7124,11.0646l-11.0645-11.0645v101.2138h18.078v-63.4369Z"/>
    <path class="cls-2" d="m1012.3724,0l-18.078,18.078.0051,29.9177c-8.7968-7.3906-20.1456-11.8421-32.534-11.8421-27.9495,0-50.6069,22.6575-50.6069,50.6069s22.6575,50.6069,50.6069,50.6069c13.9747,0,26.6264-5.6644,35.7845-14.8224h0s14.8224,14.8224,14.8224,14.8224V0Zm-83.1359,86.7606c0-17.9652,14.5637-32.5289,32.5289-32.5289,17.9652,0,32.5289,14.5637,32.5289,32.5289,0,17.9652-14.5637,32.5289-32.5289,32.5289s-32.5289-14.5637-32.5289-32.5289Z"/>
  </g>
</svg>